<svg width="100" height="32" viewBox="0 0 100 32" fill="none" xmlns="http://www.w3.org/2000/svg">
<rect width="100" height="32" rx="16" fill="white" fill-opacity="0.2"/>
<path d="M21.7035 8L21.4616 6H16V8H19.6679L21.1795 21H35.2869L37 8H21.7035ZM33.5034 19H22.9731L21.9655 10H34.6924L33.5034 19Z" fill="white"/>
<path d="M23.0336 26C24.1466 26 25.0489 25.1046 25.0489 24C25.0489 22.8954 24.1466 22 23.0336 22C21.9205 22 21.0182 22.8954 21.0182 24C21.0182 25.1046 21.9205 26 23.0336 26Z" fill="white"/>
<path d="M32.1027 26C33.2157 26 34.118 25.1046 34.118 24C34.118 22.8954 33.2157 22 32.1027 22C30.9896 22 30.0873 22.8954 30.0873 24C30.0873 25.1046 30.9896 26 32.1027 26Z" fill="white"/>
</svg>
