<svg width="92" height="32" viewBox="0 0 92 32" fill="none" xmlns="http://www.w3.org/2000/svg">
<rect width="92" height="32" rx="16" fill="white" fill-opacity="0.2"/>
<path d="M22.04 20.88L28.96 15.5L22.04 10.13V13.04H16V17.96H22.04V20.88Z" fill="white"/>
<path d="M34 6H21C20.4696 6 19.9609 6.21071 19.5858 6.58579C19.2107 6.96086 19 7.46957 19 8V10H21V8H34V23H21V21H19V23C19 23.5304 19.2107 24.0391 19.5858 24.4142C19.9609 24.7893 20.4696 25 21 25H34C34.5304 25 35.0391 24.7893 35.4142 24.4142C35.7893 24.0391 36 23.5304 36 23V8C36 7.46957 35.7893 6.96086 35.4142 6.58579C35.0391 6.21071 34.5304 6 34 6Z" fill="white"/>
</svg>
